<mxfile host="Electron" modified="2024-11-15T11:43:36.967Z" agent="Mozilla/5.0 (Windows NT 10.0; Win64; x64) AppleWebKit/537.36 (KHTML, like Gecko) draw.io/23.0.2 Chrome/120.0.6099.109 Electron/28.1.0 Safari/537.36" etag="1OMxxxliXORF-_wvQ6P2" version="23.0.2" type="device">
  <diagram name="Page-1" id="BlH4AGJkGXQGmAx4KE1v">
    <mxGraphModel dx="1655" dy="1131" grid="1" gridSize="10" guides="1" tooltips="1" connect="1" arrows="1" fold="1" page="1" pageScale="1" pageWidth="3300" pageHeight="2339" math="1" shadow="0">
      <root>
        <mxCell id="0" />
        <mxCell id="1" parent="0" />
        <mxCell id="gqW_zt_hQoUjc86rOhtZ-10" style="edgeStyle=orthogonalEdgeStyle;rounded=0;orthogonalLoop=1;jettySize=auto;html=1;exitX=1;exitY=0.5;exitDx=0;exitDy=0;entryX=0.5;entryY=0;entryDx=0;entryDy=0;endArrow=none;endFill=0;" edge="1" parent="1" source="gqW_zt_hQoUjc86rOhtZ-1" target="gqW_zt_hQoUjc86rOhtZ-4">
          <mxGeometry relative="1" as="geometry" />
        </mxCell>
        <mxCell id="gqW_zt_hQoUjc86rOhtZ-1" value="" style="rounded=0;whiteSpace=wrap;html=1;" vertex="1" parent="1">
          <mxGeometry x="190" y="100" width="120" height="60" as="geometry" />
        </mxCell>
        <mxCell id="gqW_zt_hQoUjc86rOhtZ-9" style="edgeStyle=orthogonalEdgeStyle;rounded=0;orthogonalLoop=1;jettySize=auto;html=1;exitX=0;exitY=0.5;exitDx=0;exitDy=0;entryX=0;entryY=0.5;entryDx=0;entryDy=0;endArrow=none;endFill=0;" edge="1" parent="1" source="gqW_zt_hQoUjc86rOhtZ-2" target="gqW_zt_hQoUjc86rOhtZ-3">
          <mxGeometry relative="1" as="geometry">
            <Array as="points">
              <mxPoint x="120" y="130" />
              <mxPoint x="120" y="230" />
            </Array>
          </mxGeometry>
        </mxCell>
        <mxCell id="gqW_zt_hQoUjc86rOhtZ-2" value="" style="triangle;whiteSpace=wrap;html=1;" vertex="1" parent="1">
          <mxGeometry x="190" y="100" width="45" height="60" as="geometry" />
        </mxCell>
        <mxCell id="gqW_zt_hQoUjc86rOhtZ-5" style="edgeStyle=orthogonalEdgeStyle;rounded=0;orthogonalLoop=1;jettySize=auto;html=1;exitX=1;exitY=0.5;exitDx=0;exitDy=0;entryX=0.5;entryY=0;entryDx=0;entryDy=0;endArrow=none;endFill=0;" edge="1" parent="1" source="gqW_zt_hQoUjc86rOhtZ-3" target="gqW_zt_hQoUjc86rOhtZ-4">
          <mxGeometry relative="1" as="geometry" />
        </mxCell>
        <mxCell id="gqW_zt_hQoUjc86rOhtZ-3" value="V" style="verticalLabelPosition=middle;shadow=0;dashed=0;align=center;html=1;verticalAlign=middle;strokeWidth=1;shape=ellipse;aspect=fixed;fontSize=50;" vertex="1" parent="1">
          <mxGeometry x="205" y="185" width="90" height="90" as="geometry" />
        </mxCell>
        <mxCell id="gqW_zt_hQoUjc86rOhtZ-4" value="A" style="verticalLabelPosition=middle;shadow=0;dashed=0;align=center;html=1;verticalAlign=middle;strokeWidth=1;shape=ellipse;aspect=fixed;fontSize=50;" vertex="1" parent="1">
          <mxGeometry x="320" y="275" width="90" height="90" as="geometry" />
        </mxCell>
        <mxCell id="gqW_zt_hQoUjc86rOhtZ-7" style="edgeStyle=orthogonalEdgeStyle;rounded=0;orthogonalLoop=1;jettySize=auto;html=1;exitX=1;exitY=0.5;exitDx=0;exitDy=0;exitPerimeter=0;entryX=0.5;entryY=1;entryDx=0;entryDy=0;endArrow=none;endFill=0;" edge="1" parent="1" source="gqW_zt_hQoUjc86rOhtZ-6" target="gqW_zt_hQoUjc86rOhtZ-4">
          <mxGeometry relative="1" as="geometry" />
        </mxCell>
        <mxCell id="gqW_zt_hQoUjc86rOhtZ-8" style="edgeStyle=orthogonalEdgeStyle;rounded=0;orthogonalLoop=1;jettySize=auto;html=1;exitX=0;exitY=0.5;exitDx=0;exitDy=0;exitPerimeter=0;entryX=0;entryY=0.5;entryDx=0;entryDy=0;endArrow=none;endFill=0;" edge="1" parent="1" source="gqW_zt_hQoUjc86rOhtZ-6" target="gqW_zt_hQoUjc86rOhtZ-3">
          <mxGeometry relative="1" as="geometry">
            <mxPoint x="120" y="270" as="targetPoint" />
            <Array as="points">
              <mxPoint x="120" y="410" />
              <mxPoint x="120" y="230" />
            </Array>
          </mxGeometry>
        </mxCell>
        <mxCell id="gqW_zt_hQoUjc86rOhtZ-6" value="" style="pointerEvents=1;verticalLabelPosition=bottom;shadow=0;dashed=0;align=center;html=1;verticalAlign=top;shape=mxgraph.electrical.resistors.resistor_1;" vertex="1" parent="1">
          <mxGeometry x="195" y="400" width="100" height="20" as="geometry" />
        </mxCell>
        <mxCell id="gqW_zt_hQoUjc86rOhtZ-11" value="\(PV_1\)" style="text;html=1;strokeColor=none;fillColor=none;align=center;verticalAlign=middle;whiteSpace=wrap;rounded=0;fontSize=18;" vertex="1" parent="1">
          <mxGeometry x="235" y="115" width="60" height="30" as="geometry" />
        </mxCell>
        <mxCell id="gqW_zt_hQoUjc86rOhtZ-12" value="&lt;blockquote style=&quot;margin: 0 0 0 40px; border: none; padding: 0px;&quot;&gt;&lt;br&gt;&lt;/blockquote&gt;" style="text;html=1;strokeColor=none;fillColor=none;align=center;verticalAlign=middle;whiteSpace=wrap;rounded=0;fontSize=18;" vertex="1" parent="1">
          <mxGeometry x="215" y="420" width="60" height="30" as="geometry" />
        </mxCell>
        <mxCell id="gqW_zt_hQoUjc86rOhtZ-13" value="\(R_{LOAD}\)" style="text;html=1;strokeColor=none;fillColor=none;align=center;verticalAlign=middle;whiteSpace=wrap;rounded=0;fontSize=18;" vertex="1" parent="1">
          <mxGeometry x="220" y="430" width="60" height="30" as="geometry" />
        </mxCell>
        <mxCell id="gqW_zt_hQoUjc86rOhtZ-14" value="Voltmeter" style="text;html=1;strokeColor=none;fillColor=none;align=center;verticalAlign=middle;whiteSpace=wrap;rounded=0;" vertex="1" parent="1">
          <mxGeometry x="220" y="280" width="60" height="30" as="geometry" />
        </mxCell>
        <mxCell id="gqW_zt_hQoUjc86rOhtZ-15" value="Ammeter&amp;nbsp;" style="text;html=1;strokeColor=none;fillColor=none;align=center;verticalAlign=middle;whiteSpace=wrap;rounded=0;" vertex="1" parent="1">
          <mxGeometry x="420" y="305" width="60" height="30" as="geometry" />
        </mxCell>
        <mxCell id="gqW_zt_hQoUjc86rOhtZ-16" value="1" style="ellipse;whiteSpace=wrap;html=1;aspect=fixed;fontSize=28;fontStyle=1;fillColor=#f5f5f5;fontColor=#333333;strokeColor=#666666;" vertex="1" parent="1">
          <mxGeometry x="40" y="40" width="50" height="50" as="geometry" />
        </mxCell>
        <mxCell id="gqW_zt_hQoUjc86rOhtZ-18" style="edgeStyle=orthogonalEdgeStyle;rounded=0;orthogonalLoop=1;jettySize=auto;html=1;exitX=0.5;exitY=0;exitDx=0;exitDy=0;exitPerimeter=0;entryX=1;entryY=0.5;entryDx=0;entryDy=0;endArrow=none;endFill=0;" edge="1" parent="1" source="gqW_zt_hQoUjc86rOhtZ-17" target="gqW_zt_hQoUjc86rOhtZ-1">
          <mxGeometry relative="1" as="geometry" />
        </mxCell>
        <mxCell id="gqW_zt_hQoUjc86rOhtZ-17" value="" style="pointerEvents=1;verticalLabelPosition=bottom;shadow=0;dashed=0;align=center;html=1;verticalAlign=top;shape=mxgraph.electrical.signal_sources.signal_ground;" vertex="1" parent="1">
          <mxGeometry x="400" y="155" width="45" height="30" as="geometry" />
        </mxCell>
        <mxCell id="gqW_zt_hQoUjc86rOhtZ-20" style="edgeStyle=orthogonalEdgeStyle;rounded=0;orthogonalLoop=1;jettySize=auto;html=1;exitX=1;exitY=0.5;exitDx=0;exitDy=0;entryX=0.5;entryY=0;entryDx=0;entryDy=0;endArrow=none;endFill=0;" edge="1" parent="1" source="gqW_zt_hQoUjc86rOhtZ-21" target="gqW_zt_hQoUjc86rOhtZ-26">
          <mxGeometry relative="1" as="geometry" />
        </mxCell>
        <mxCell id="gqW_zt_hQoUjc86rOhtZ-21" value="" style="rounded=0;whiteSpace=wrap;html=1;" vertex="1" parent="1">
          <mxGeometry x="710" y="100" width="120" height="60" as="geometry" />
        </mxCell>
        <mxCell id="gqW_zt_hQoUjc86rOhtZ-22" style="edgeStyle=orthogonalEdgeStyle;rounded=0;orthogonalLoop=1;jettySize=auto;html=1;exitX=0;exitY=0.5;exitDx=0;exitDy=0;entryX=0;entryY=0.5;entryDx=0;entryDy=0;endArrow=none;endFill=0;" edge="1" parent="1" source="gqW_zt_hQoUjc86rOhtZ-23" target="gqW_zt_hQoUjc86rOhtZ-25">
          <mxGeometry relative="1" as="geometry">
            <Array as="points">
              <mxPoint x="640" y="130" />
              <mxPoint x="640" y="230" />
            </Array>
          </mxGeometry>
        </mxCell>
        <mxCell id="gqW_zt_hQoUjc86rOhtZ-23" value="" style="triangle;whiteSpace=wrap;html=1;" vertex="1" parent="1">
          <mxGeometry x="710" y="100" width="45" height="60" as="geometry" />
        </mxCell>
        <mxCell id="gqW_zt_hQoUjc86rOhtZ-24" style="edgeStyle=orthogonalEdgeStyle;rounded=0;orthogonalLoop=1;jettySize=auto;html=1;exitX=1;exitY=0.5;exitDx=0;exitDy=0;entryX=0.5;entryY=0;entryDx=0;entryDy=0;endArrow=none;endFill=0;" edge="1" parent="1" source="gqW_zt_hQoUjc86rOhtZ-25" target="gqW_zt_hQoUjc86rOhtZ-26">
          <mxGeometry relative="1" as="geometry" />
        </mxCell>
        <mxCell id="gqW_zt_hQoUjc86rOhtZ-25" value="V" style="verticalLabelPosition=middle;shadow=0;dashed=0;align=center;html=1;verticalAlign=middle;strokeWidth=1;shape=ellipse;aspect=fixed;fontSize=50;" vertex="1" parent="1">
          <mxGeometry x="725" y="185" width="90" height="90" as="geometry" />
        </mxCell>
        <mxCell id="gqW_zt_hQoUjc86rOhtZ-26" value="A" style="verticalLabelPosition=middle;shadow=0;dashed=0;align=center;html=1;verticalAlign=middle;strokeWidth=1;shape=ellipse;aspect=fixed;fontSize=50;" vertex="1" parent="1">
          <mxGeometry x="840" y="275" width="90" height="90" as="geometry" />
        </mxCell>
        <mxCell id="gqW_zt_hQoUjc86rOhtZ-27" style="edgeStyle=orthogonalEdgeStyle;rounded=0;orthogonalLoop=1;jettySize=auto;html=1;exitX=1;exitY=0.5;exitDx=0;exitDy=0;exitPerimeter=0;entryX=0.5;entryY=1;entryDx=0;entryDy=0;endArrow=none;endFill=0;" edge="1" parent="1" target="gqW_zt_hQoUjc86rOhtZ-26">
          <mxGeometry relative="1" as="geometry">
            <mxPoint x="815" y="410" as="sourcePoint" />
          </mxGeometry>
        </mxCell>
        <mxCell id="gqW_zt_hQoUjc86rOhtZ-28" style="edgeStyle=orthogonalEdgeStyle;rounded=0;orthogonalLoop=1;jettySize=auto;html=1;exitX=0;exitY=0.5;exitDx=0;exitDy=0;exitPerimeter=0;entryX=0;entryY=0.5;entryDx=0;entryDy=0;endArrow=none;endFill=0;" edge="1" parent="1" target="gqW_zt_hQoUjc86rOhtZ-25">
          <mxGeometry relative="1" as="geometry">
            <mxPoint x="640" y="270" as="targetPoint" />
            <Array as="points">
              <mxPoint x="640" y="410" />
              <mxPoint x="640" y="230" />
            </Array>
            <mxPoint x="714.9999999999998" y="410" as="sourcePoint" />
          </mxGeometry>
        </mxCell>
        <mxCell id="gqW_zt_hQoUjc86rOhtZ-30" value="\(PV_1\)" style="text;html=1;strokeColor=none;fillColor=none;align=center;verticalAlign=middle;whiteSpace=wrap;rounded=0;fontSize=18;" vertex="1" parent="1">
          <mxGeometry x="755" y="115" width="60" height="30" as="geometry" />
        </mxCell>
        <mxCell id="gqW_zt_hQoUjc86rOhtZ-31" value="&lt;blockquote style=&quot;margin: 0 0 0 40px; border: none; padding: 0px;&quot;&gt;&lt;br&gt;&lt;/blockquote&gt;" style="text;html=1;strokeColor=none;fillColor=none;align=center;verticalAlign=middle;whiteSpace=wrap;rounded=0;fontSize=18;" vertex="1" parent="1">
          <mxGeometry x="735" y="420" width="60" height="30" as="geometry" />
        </mxCell>
        <mxCell id="gqW_zt_hQoUjc86rOhtZ-32" value="Open circuit" style="text;html=1;strokeColor=none;fillColor=none;align=center;verticalAlign=middle;whiteSpace=wrap;rounded=0;fontSize=18;" vertex="1" parent="1">
          <mxGeometry x="740" y="430" width="60" height="30" as="geometry" />
        </mxCell>
        <mxCell id="gqW_zt_hQoUjc86rOhtZ-33" value="Voltmeter" style="text;html=1;strokeColor=none;fillColor=none;align=center;verticalAlign=middle;whiteSpace=wrap;rounded=0;" vertex="1" parent="1">
          <mxGeometry x="740" y="280" width="60" height="30" as="geometry" />
        </mxCell>
        <mxCell id="gqW_zt_hQoUjc86rOhtZ-34" value="Ammeter&amp;nbsp;" style="text;html=1;strokeColor=none;fillColor=none;align=center;verticalAlign=middle;whiteSpace=wrap;rounded=0;" vertex="1" parent="1">
          <mxGeometry x="940" y="305" width="60" height="30" as="geometry" />
        </mxCell>
        <mxCell id="gqW_zt_hQoUjc86rOhtZ-35" value="2" style="ellipse;whiteSpace=wrap;html=1;aspect=fixed;fontSize=28;fontStyle=1;fillColor=#f5f5f5;fontColor=#333333;strokeColor=#666666;" vertex="1" parent="1">
          <mxGeometry x="560" y="40" width="50" height="50" as="geometry" />
        </mxCell>
        <mxCell id="gqW_zt_hQoUjc86rOhtZ-36" style="edgeStyle=orthogonalEdgeStyle;rounded=0;orthogonalLoop=1;jettySize=auto;html=1;exitX=0.5;exitY=0;exitDx=0;exitDy=0;exitPerimeter=0;entryX=1;entryY=0.5;entryDx=0;entryDy=0;endArrow=none;endFill=0;" edge="1" parent="1" source="gqW_zt_hQoUjc86rOhtZ-37" target="gqW_zt_hQoUjc86rOhtZ-21">
          <mxGeometry relative="1" as="geometry" />
        </mxCell>
        <mxCell id="gqW_zt_hQoUjc86rOhtZ-37" value="" style="pointerEvents=1;verticalLabelPosition=bottom;shadow=0;dashed=0;align=center;html=1;verticalAlign=top;shape=mxgraph.electrical.signal_sources.signal_ground;" vertex="1" parent="1">
          <mxGeometry x="920" y="155" width="45" height="30" as="geometry" />
        </mxCell>
        <mxCell id="gqW_zt_hQoUjc86rOhtZ-38" style="edgeStyle=orthogonalEdgeStyle;rounded=0;orthogonalLoop=1;jettySize=auto;html=1;exitX=1;exitY=0.5;exitDx=0;exitDy=0;entryX=0.5;entryY=0;entryDx=0;entryDy=0;endArrow=none;endFill=0;" edge="1" parent="1" source="gqW_zt_hQoUjc86rOhtZ-39" target="gqW_zt_hQoUjc86rOhtZ-44">
          <mxGeometry relative="1" as="geometry" />
        </mxCell>
        <mxCell id="gqW_zt_hQoUjc86rOhtZ-39" value="" style="rounded=0;whiteSpace=wrap;html=1;" vertex="1" parent="1">
          <mxGeometry x="1230" y="100" width="120" height="60" as="geometry" />
        </mxCell>
        <mxCell id="gqW_zt_hQoUjc86rOhtZ-40" style="edgeStyle=orthogonalEdgeStyle;rounded=0;orthogonalLoop=1;jettySize=auto;html=1;exitX=0;exitY=0.5;exitDx=0;exitDy=0;entryX=0;entryY=0.5;entryDx=0;entryDy=0;endArrow=none;endFill=0;" edge="1" parent="1" source="gqW_zt_hQoUjc86rOhtZ-41" target="gqW_zt_hQoUjc86rOhtZ-43">
          <mxGeometry relative="1" as="geometry">
            <Array as="points">
              <mxPoint x="1160" y="130" />
              <mxPoint x="1160" y="230" />
            </Array>
          </mxGeometry>
        </mxCell>
        <mxCell id="gqW_zt_hQoUjc86rOhtZ-41" value="" style="triangle;whiteSpace=wrap;html=1;" vertex="1" parent="1">
          <mxGeometry x="1230" y="100" width="45" height="60" as="geometry" />
        </mxCell>
        <mxCell id="gqW_zt_hQoUjc86rOhtZ-42" style="edgeStyle=orthogonalEdgeStyle;rounded=0;orthogonalLoop=1;jettySize=auto;html=1;exitX=1;exitY=0.5;exitDx=0;exitDy=0;entryX=0.5;entryY=0;entryDx=0;entryDy=0;endArrow=none;endFill=0;" edge="1" parent="1" source="gqW_zt_hQoUjc86rOhtZ-43" target="gqW_zt_hQoUjc86rOhtZ-44">
          <mxGeometry relative="1" as="geometry" />
        </mxCell>
        <mxCell id="gqW_zt_hQoUjc86rOhtZ-43" value="V" style="verticalLabelPosition=middle;shadow=0;dashed=0;align=center;html=1;verticalAlign=middle;strokeWidth=1;shape=ellipse;aspect=fixed;fontSize=50;" vertex="1" parent="1">
          <mxGeometry x="1245" y="185" width="90" height="90" as="geometry" />
        </mxCell>
        <mxCell id="gqW_zt_hQoUjc86rOhtZ-44" value="A" style="verticalLabelPosition=middle;shadow=0;dashed=0;align=center;html=1;verticalAlign=middle;strokeWidth=1;shape=ellipse;aspect=fixed;fontSize=50;" vertex="1" parent="1">
          <mxGeometry x="1360" y="275" width="90" height="90" as="geometry" />
        </mxCell>
        <mxCell id="gqW_zt_hQoUjc86rOhtZ-45" style="edgeStyle=orthogonalEdgeStyle;rounded=0;orthogonalLoop=1;jettySize=auto;html=1;exitX=1;exitY=0.5;exitDx=0;exitDy=0;exitPerimeter=0;entryX=0.5;entryY=1;entryDx=0;entryDy=0;endArrow=none;endFill=0;" edge="1" parent="1" target="gqW_zt_hQoUjc86rOhtZ-44" source="gqW_zt_hQoUjc86rOhtZ-58">
          <mxGeometry relative="1" as="geometry">
            <mxPoint x="1335" y="410" as="sourcePoint" />
          </mxGeometry>
        </mxCell>
        <mxCell id="gqW_zt_hQoUjc86rOhtZ-46" style="edgeStyle=orthogonalEdgeStyle;rounded=0;orthogonalLoop=1;jettySize=auto;html=1;exitX=0;exitY=0.5;exitDx=0;exitDy=0;exitPerimeter=0;entryX=0;entryY=0.5;entryDx=0;entryDy=0;endArrow=none;endFill=0;" edge="1" parent="1" target="gqW_zt_hQoUjc86rOhtZ-43">
          <mxGeometry relative="1" as="geometry">
            <mxPoint x="1160" y="270" as="targetPoint" />
            <Array as="points">
              <mxPoint x="1160" y="410" />
              <mxPoint x="1160" y="230" />
            </Array>
            <mxPoint x="1234.9999999999998" y="410" as="sourcePoint" />
          </mxGeometry>
        </mxCell>
        <mxCell id="gqW_zt_hQoUjc86rOhtZ-47" value="\(PV_1\)" style="text;html=1;strokeColor=none;fillColor=none;align=center;verticalAlign=middle;whiteSpace=wrap;rounded=0;fontSize=18;" vertex="1" parent="1">
          <mxGeometry x="1275" y="115" width="60" height="30" as="geometry" />
        </mxCell>
        <mxCell id="gqW_zt_hQoUjc86rOhtZ-48" value="&lt;blockquote style=&quot;margin: 0 0 0 40px; border: none; padding: 0px;&quot;&gt;&lt;br&gt;&lt;/blockquote&gt;" style="text;html=1;strokeColor=none;fillColor=none;align=center;verticalAlign=middle;whiteSpace=wrap;rounded=0;fontSize=18;" vertex="1" parent="1">
          <mxGeometry x="1255" y="420" width="60" height="30" as="geometry" />
        </mxCell>
        <mxCell id="gqW_zt_hQoUjc86rOhtZ-49" value="Short&lt;br&gt;circuit" style="text;html=1;strokeColor=none;fillColor=none;align=center;verticalAlign=middle;whiteSpace=wrap;rounded=0;fontSize=18;" vertex="1" parent="1">
          <mxGeometry x="1260" y="430" width="60" height="30" as="geometry" />
        </mxCell>
        <mxCell id="gqW_zt_hQoUjc86rOhtZ-50" value="Voltmeter" style="text;html=1;strokeColor=none;fillColor=none;align=center;verticalAlign=middle;whiteSpace=wrap;rounded=0;" vertex="1" parent="1">
          <mxGeometry x="1260" y="280" width="60" height="30" as="geometry" />
        </mxCell>
        <mxCell id="gqW_zt_hQoUjc86rOhtZ-51" value="Ammeter&amp;nbsp;" style="text;html=1;strokeColor=none;fillColor=none;align=center;verticalAlign=middle;whiteSpace=wrap;rounded=0;" vertex="1" parent="1">
          <mxGeometry x="1460" y="305" width="60" height="30" as="geometry" />
        </mxCell>
        <mxCell id="gqW_zt_hQoUjc86rOhtZ-52" value="3" style="ellipse;whiteSpace=wrap;html=1;aspect=fixed;fontSize=28;fontStyle=1;fillColor=#f5f5f5;fontColor=#333333;strokeColor=#666666;" vertex="1" parent="1">
          <mxGeometry x="1080" y="40" width="50" height="50" as="geometry" />
        </mxCell>
        <mxCell id="gqW_zt_hQoUjc86rOhtZ-53" style="edgeStyle=orthogonalEdgeStyle;rounded=0;orthogonalLoop=1;jettySize=auto;html=1;exitX=0.5;exitY=0;exitDx=0;exitDy=0;exitPerimeter=0;entryX=1;entryY=0.5;entryDx=0;entryDy=0;endArrow=none;endFill=0;" edge="1" parent="1" source="gqW_zt_hQoUjc86rOhtZ-54" target="gqW_zt_hQoUjc86rOhtZ-39">
          <mxGeometry relative="1" as="geometry" />
        </mxCell>
        <mxCell id="gqW_zt_hQoUjc86rOhtZ-54" value="" style="pointerEvents=1;verticalLabelPosition=bottom;shadow=0;dashed=0;align=center;html=1;verticalAlign=top;shape=mxgraph.electrical.signal_sources.signal_ground;" vertex="1" parent="1">
          <mxGeometry x="1440" y="155" width="45" height="30" as="geometry" />
        </mxCell>
        <mxCell id="gqW_zt_hQoUjc86rOhtZ-55" value="" style="endArrow=none;html=1;rounded=0;" edge="1" parent="1" source="gqW_zt_hQoUjc86rOhtZ-56">
          <mxGeometry width="50" height="50" relative="1" as="geometry">
            <mxPoint x="1230" y="410" as="sourcePoint" />
            <mxPoint x="1340" y="410" as="targetPoint" />
          </mxGeometry>
        </mxCell>
        <mxCell id="gqW_zt_hQoUjc86rOhtZ-57" value="" style="endArrow=none;html=1;rounded=0;" edge="1" parent="1" target="gqW_zt_hQoUjc86rOhtZ-56">
          <mxGeometry width="50" height="50" relative="1" as="geometry">
            <mxPoint x="1230" y="410" as="sourcePoint" />
            <mxPoint x="1340" y="410" as="targetPoint" />
          </mxGeometry>
        </mxCell>
        <mxCell id="gqW_zt_hQoUjc86rOhtZ-56" value="" style="ellipse;whiteSpace=wrap;html=1;aspect=fixed;fillColor=#000000;" vertex="1" parent="1">
          <mxGeometry x="1230" y="407.5" width="5" height="5" as="geometry" />
        </mxCell>
        <mxCell id="gqW_zt_hQoUjc86rOhtZ-59" value="" style="edgeStyle=orthogonalEdgeStyle;rounded=0;orthogonalLoop=1;jettySize=auto;html=1;exitX=1;exitY=0.5;exitDx=0;exitDy=0;exitPerimeter=0;entryX=0.5;entryY=1;entryDx=0;entryDy=0;endArrow=none;endFill=0;" edge="1" parent="1" target="gqW_zt_hQoUjc86rOhtZ-58">
          <mxGeometry relative="1" as="geometry">
            <mxPoint x="1335" y="410" as="sourcePoint" />
            <mxPoint x="1405" y="365" as="targetPoint" />
          </mxGeometry>
        </mxCell>
        <mxCell id="gqW_zt_hQoUjc86rOhtZ-58" value="" style="ellipse;whiteSpace=wrap;html=1;aspect=fixed;fillColor=#000000;" vertex="1" parent="1">
          <mxGeometry x="1345" y="407.5" width="5" height="5" as="geometry" />
        </mxCell>
      </root>
    </mxGraphModel>
  </diagram>
</mxfile>
